<svg width="100%" height="100%" id="svg" viewBox="0 0 1440 700" xmlns="http://www.w3.org/2000/svg" class="transition duration-300 ease-in-out delay-150"><defs><linearGradient id="gradient" x1="0%" y1="47%" x2="100%" y2="53%"><stop offset="5%" stop-color="#6366f1"></stop><stop offset="95%" stop-color="#aeb0f2"></stop></linearGradient></defs><path d="M 0,700 C 0,700 0,175 0,175 C 43.0278254895225,174.72586739951907 86.055650979045,174.45173479903812 168,154 C 249.944349020955,133.54826520096188 370.80522157334246,92.91892820336653 445,112 C 519.1947784266575,131.08107179663347 546.723462727585,209.8725523874957 596,226 C 645.276537272415,242.1274476125043 716.3009275163174,195.59086224665063 788,168 C 859.6990724836826,140.40913775334937 932.0728272071453,131.76399862590176 1017,143 C 1101.9271727928547,154.23600137409824 1199.4077636551015,185.35314324974235 1272,194 C 1344.5922363448985,202.64685675025765 1392.2961181724493,188.82342837512883 1440,175 C 1440,175 1440,700 1440,700 Z" stroke="none" stroke-width="0" fill="url(#gradient)" fill-opacity="0.4" class="transition-all duration-300 ease-in-out delay-150 path-0"></path><defs><linearGradient id="gradient" x1="0%" y1="47%" x2="100%" y2="53%"><stop offset="5%" stop-color="#6366f1"></stop><stop offset="95%" stop-color="#aeb0f2"></stop></linearGradient></defs><path d="M 0,700 C 0,700 0,350 0,350 C 83.26691858467879,318.6032291308829 166.53383716935758,287.20645826176576 238,295 C 309.4661628306424,302.79354173823424 369.1315699072484,349.77739608382 432,355 C 494.8684300927516,360.22260391618 560.9398832016489,323.6839574029543 628,327 C 695.0601167983511,330.3160425970457 763.1088972861561,373.48677430436277 826,373 C 888.8911027138439,372.51322569563723 946.6245276537275,328.3689453795946 1011,316 C 1075.3754723462725,303.6310546204054 1146.392992098935,323.03744417725864 1219,334 C 1291.607007901065,344.96255582274136 1365.8035039505326,347.4812779113707 1440,350 C 1440,350 1440,700 1440,700 Z" stroke="none" stroke-width="0" fill="url(#gradient)" fill-opacity="0.53" class="transition-all duration-300 ease-in-out delay-150 path-1"></path><defs><linearGradient id="gradient" x1="0%" y1="47%" x2="100%" y2="53%"><stop offset="5%" stop-color="#6366f1"></stop><stop offset="95%" stop-color="#aeb0f2"></stop></linearGradient></defs><path d="M 0,700 C 0,700 0,525 0,525 C 67.69907248368258,519.1449673651666 135.39814496736517,513.2899347303331 201,523 C 266.60185503263483,532.7100652696669 330.10649261422185,557.9852284438338 400,558 C 469.89350738577815,558.0147715561662 546.1758845757472,532.7691514943319 613,504 C 679.8241154242528,475.2308485056681 737.1899690827895,442.93816557883883 808,465 C 878.8100309172105,487.06183442116117 963.064239093095,563.4781861903127 1040,570 C 1116.935760906905,576.5218138096873 1186.55307454483,513.1490896599107 1252,494 C 1317.44692545517,474.85091034008934 1378.723462727585,499.92545517004464 1440,525 C 1440,525 1440,700 1440,700 Z" stroke="none" stroke-width="0" fill="url(#gradient)" fill-opacity="1" class="transition-all duration-300 ease-in-out delay-150 path-2"></path></svg>
