<svg fill="#FFF" xmlns="http://www.w3.org/2000/svg" width="18.638" height="14.37" viewBox="0 0 18.638 14.37">
  <g id="crown" transform="translate(-5664.97 -543.77)">
    <path id="bottom" d="M5694.634,844.062h16.349v1.757a1,1,0,0,1-.256.7c-.288.308-.516.257-.516.257H5695.4a.746.746,0,0,1-.55-.279.664.664,0,0,1-.219-.491Z" transform="translate(-28.511 -288.639)" fill="#fbbf24"/>
    <path id="top" d="M5666.12,554.045l-1.148-7.429s-.063-.587.455-.621,1.225.621,1.225.621l2.724,2.058a1.442,1.442,0,0,0,.681.284.808.808,0,0,0,.54-.284l2.609-3.91s.541-1,1.083-1,1.086,1,1.086,1l2.445,3.695a1.051,1.051,0,0,0,.729.474,1.914,1.914,0,0,0,.952-.474l2.544-1.926a2.11,2.11,0,0,1,1.088-.53c.495,0,.475.53.475.53l-1.154,7.511Z" transform="translate(0)" fill="#fbbf24"/>
  </g>
</svg>
